<?xml version="1.0" encoding="UTF-8"?>
<!DOCTYPE svg PUBLIC "-//W3C//DTD SVG 1.1//EN" "http://www.w3.org/Graphics/SVG/1.1/DTD/svg11.dtd">
<!-- Creator: CorelDRAW X8 -->
<svg xmlns="http://www.w3.org/2000/svg" xml:space="preserve" width="300px" height="302px" version="1.1" style="shape-rendering:geometricPrecision; text-rendering:geometricPrecision; image-rendering:optimizeQuality; fill-rule:evenodd; clip-rule:evenodd"
viewBox="0 0 8998 9041"
 xmlns:xlink="http://www.w3.org/1999/xlink">
 <defs>
  <style type="text/css">
   <![CDATA[
    .fil0 {fill:#d8d8d8;}
   ]]>
  </style>
 </defs>
 <g id="Capa_x0020_1">
  <metadata id="CorelCorpID_0Corel-Layer"/>
  <path class="fil0" d="M7687 1314c-846,-847 -1971,-1314 -3169,-1314 -2470,0 -4479,2010 -4480,4480 -1,790 206,1560 598,2240l-636 2321 2375 -623c654,357 1391,545 2141,546l2 0c0,0 0,0 0,0 2469,0 4479,-2010 4480,-4481 1,-1197 -465,-2322 -1311,-3169zm-3169 6893l0 0 -2 0c-668,0 -1323,-180 -1895,-519l-136 -81 -1409 370 376 -1374 -89 -141c-372,-593 -569,-1278 -569,-1982 1,-2053 1671,-3723 3725,-3723 995,0 1930,388 2633,1092 703,704 1090,1639 1090,2634 -1,2053 -1672,3724 -3724,3724zm2042 -2789l0 0c-112,-56 -662,-327 -765,-364 -102,-37 -177,-56 -251,56 -75,112 -290,364 -355,439 -65,75 -130,84 -242,28 -112,-56 -473,-174 -901,-556 -332,-297 -557,-663 -622,-775 -66,-112 -7,-173 49,-229 50,-50 112,-130 168,-196 56,-65 74,-112 112,-187 37,-74 18,-140 -10,-196 -28,-56 -252,-607 -345,-831 -91,-218 -183,-189 -252,-192 -65,-3 -140,-4 -214,-4 -75,0 -196,28 -299,140 -102,112 -392,383 -392,934 0,551 401,1083 457,1158 56,75 790,1205 1913,1690 267,116 475,185 638,236 268,85 512,73 705,44 215,-32 662,-270 756,-532 93,-261 93,-485 65,-532 -28,-47 -103,-75 -215,-131z"/>
 </g>
</svg>
